<svg xmlns="http://www.w3.org/2000/svg" xmlns:xlink="http://www.w3.org/1999/xlink" width="358" height="251" viewBox="0 0 358 251">
  <defs>
    <path id="rzkgb" d="M545 246.56v15.786h19.593v61.387h17.382v-61.387h19.595V246.56z"></path>
    <path id="rzkgc" d="M652.963 324.787c-9.185 0-17.447-2.845-23.264-8.01-6.765-6.057-10.049-14.497-10.049-25.807v-44.41h17.383v45.464c0 5.837 1.392 9.852 4.382 12.63 2.907 2.812 7.001 4.35 11.548 4.35 4.55 0 8.641-1.538 11.527-4.33 3.012-2.798 4.404-6.812 4.404-12.65V246.56h17.384v44.41c0 11.308-3.287 19.749-10.045 25.805-5.82 5.167-14.082 8.012-23.27 8.012"></path>
    <path id="rzkgd" d="M756.853 323.733l-26.372-32.81h-2.906v32.81H710.19V246.56h28.553c7.354 0 12.833 1.878 17.241 5.911 4.5 4.256 7.07 10.18 7.07 16.268 0 6.092-2.57 12.017-7.05 16.257a20.365 20.365 0 0 1-5.92 3.903l28.448 34.834zm-18.954-48.596c4.127 0 5.295-.891 6.064-1.728 1.06-1.142 1.715-2.889 1.715-4.564 0-1.738-.656-3.525-1.712-4.664-.878-.953-2.219-1.835-6.067-1.835h-10.324v12.791z"></path>
    <path id="rzkga" d="M545 376.84h357.56V126.56H545z"></path>
    <path id="rzkgf" d="M791.72 323.733h17.386V246.56H791.72z"></path>
    <path id="rzkgg" d="M884.265 323.733l-6.987-16.407h-27.717l-6.989 16.407H824.28l33.089-77.173h12.1l33.09 77.173zm-13.819-32.193l-7.079-16.457-7.079 16.457z"></path>
    <path id="rzkgh" d="M713.343 348.136c1.483 0 2.645-1.134 2.645-2.582 0-1.006-.66-2.464-1.845-2.464-1.574 0-2.713 1.112-2.713 2.65 0 1.163.67 2.396 1.913 2.396"></path>
    <path id="rzkgi" d="M722.198 348.136c1.485 0 2.651-1.134 2.651-2.582 0-1.006-.657-2.464-1.85-2.464-1.568 0-2.709 1.112-2.709 2.65 0 1.163.672 2.396 1.908 2.396"></path>
    <path id="rzkgj" d="M819.6 358.458l-.228.22-11.193 10.88c-2.735 2.68-6.875 6.722-10.422 6.722-1.317 0-2.341-.606-2.814-1.67-.95-2.13.409-5.536 3.63-9.111l3.867-4.297c.242-.273.52-.577.82-.899 1.39-1.5 3.288-3.554 3.288-4.858 0-.608-.6-.735-1.104-.735-2.414 0-9.459 3.937-20.541 18.688l-1.818 2.394h-4.414l11.27-14.538-8.582 7.092c-.354.287-.736.61-1.146.956-3.301 2.78-8.29 6.978-12.276 6.978-1.887 0-3.158-.682-3.775-2.037-.854-1.872-.218-4.886 1.154-7.892l-2.93 3.015a73.672 73.672 0 0 0-1.636 1.644c-2.722 2.77-5.293 5.392-9.908 5.392-2.181 0-3.666-1.428-5.104-2.803-1.292-1.243-2.51-2.416-4.12-2.416-.425 0-.713.06-.939.197l-.176.119c-1.461 1.163-1.712 2.078-1.712 3.675 0 .447-.282 1.292-1.353 1.292-.725 0-1.049-.556-1.049-1.11 0-1.071 1.48-2.716 2.365-3.596 2.72-2.627 6.624-4.433 10.752-6.347 3.97-1.835 8.06-3.731 11.568-6.52a8.742 8.742 0 0 1-2.54.362c-1.623 0-2.743-.699-3.733-1.32-.868-.542-1.621-1.017-2.604-1.017-1.564 0-2.465.593-3.626 1.732l-10.78 11.208c-3.042 3.108-6.576 6.422-10.001 6.422-1.283 0-2.323-.619-2.852-1.701-1.29-2.646.489-7.383 4.878-12.997a20.992 20.992 0 0 1 2.628-2.819c-.995.252-1.91.367-2.811.367-.25 0-.475-.034-.707-.06l-10.753 11.092c-3.97 4.062-7.104 6.118-9.318 6.118-1.468 0-2.605-.558-3.207-1.575-.563-.959-.88-2.665.325-5.603-2.545 2.884-6.788 7.178-9.916 7.178-2.271 0-3.63-1.466-3.63-3.934 0-1.1.23-2.288.613-3.509-1.748 2.24-6.028 7.443-10.366 7.443-1.975 0-3.383-.717-4.178-2.138-2.613-4.673 2.224-15.54 4.833-19.786l1.6-2.579a54.355 54.355 0 0 1 3.17-4.657c-2.395 2.364-4.812 4.953-7.32 7.635-9.037 9.667-18.379 19.667-28.875 21.277l-1.29.185c-.582.063-1.096.063-1.645.063-1.753 0-2.973-.224-3.843-.717-.573-.312-.84-.795-.712-1.294.12-.473.575-.817 1.08-.817.29 0 .567.112.796.326.107.093.216.206.332.322.518.532 1.106 1.132 2.408 1.132 6.87 0 10.304-7.807 13.33-14.698.895-2.032 1.738-3.95 2.636-5.608l1.29-2.575c1.761-3.526 3.715-6.592 5.83-9.168-4.156 3.666-8.472 8.252-12.681 12.721-9.696 10.29-19.723 20.93-28.176 20.93-8.58 0-11.629-5.693-11.629-10.573 0-7.985 5.678-11.618 10.956-11.618 5.956 0 9.959 3.91 9.959 7.561 0 .979-.685 1.966-2.213 1.966-1.02 0-1.787-.844-1.787-1.966 0-1.828-.572-6.082-5.901-6.082-4.755 0-9.839 2.665-9.839 10.14 0 4.602 2.749 9.524 10.454 9.524 7.793 0 17.57-10.35 27.021-20.356 7.762-8.218 15.775-16.7 22.937-19.806-3.424-.25-6.483-.614-9.456-.967-5.252-.625-10.214-1.215-16.946-1.215-9.78 0-13.97 2.374-14.021 7.93.058 5.852 4.98 8.473 9.837 8.473 7.49 0 8.61-5.119 8.61-8.17 0-1.214.611-1.967 1.596-1.967 1.353 0 1.538 1.196 1.599 1.588-.055 4.676-4.816 9.6-11.805 9.6-4.98 0-10.82-2.494-10.894-9.524.067-7.319 4.852-11.682 12.804-11.682 3.697 0 7.218.82 11.297 1.775 4.949 1.154 11.103 2.595 19.961 3.137a23.012 23.012 0 0 1 7.241-1.163c.92 0 1.418.568 1.418 1.106 0 .95-.719 1.355-2.405 1.355-2.068 0-4.022 0-5.8-.115-5.863 2.148-8.367 7.188-12.904 16.308l-2.303 4.597c-.493.981-.972 1.957-1.446 2.923-2.311 4.72-4.517 9.218-7.72 12.37 6.928-3.981 13.556-11.02 19.987-17.854 6.379-6.777 12.404-13.177 18.518-16.537 2.816-1.574 5.577-2.375 8.213-2.375 3.276 0 5.474 1.039 5.474 2.588 0 .702-.618 1.291-1.35 1.291-.867 0-1.222-.936-1.341-1.246-.376-.962-1.3-1.52-2.536-1.52-7.425 0-13.002 9.158-16.692 15.217-.444.723-.858 1.41-1.253 2.032l-1.529 2.574c-2.974 4.925-7.83 15.34-6.16 18.298.295.523.794.781 1.52.781 3.612 0 8.05-5.161 9.786-7.38l2.151-2.725c3.314-5.939 9.77-11.59 15.6-11.59 3.198 0 4.06 1.717 4.171 3.305l2.198-2.69h4.716l-9.673 12.543c-.175.258-.452.625-.772 1.055-1.35 1.795-4.16 5.533-3.468 6.911.188.377.683.571 1.474.571 1.924 0 4.767-1.913 8.45-5.687l10.444-10.716c-1.927-.649-3.043-2.275-3.043-3.877 0-1.922 1.062-3.32 2.527-3.32 1.097 0 1.726.56 1.726 1.538 0 .829-.531 1.199-.998 1.53-.487.344-.904.638-.904 1.419 0 1.285.979 1.963 2.826 1.963 5.296 0 11.178-4.737 11.235-4.782l.215-.176.61.592-.34.35c-.038.045-.231.252-.53.577-1.838 1.995-7.432 8.064-10.326 12.107l-.29.404c-1.229 1.69-4.492 6.177-3.749 7.632.06.11.227.446 1.08.446 2.895 0 6.4-3.201 9.134-5.994l10.622-10.977.409-.453c2.076-2.32 3.722-4.147 6.092-4.147 2.153 0 3.137 1.067 4 2.011.822.9 1.535 1.674 3.132 1.674.777 0 1.49-.242 2.307-.778.451-.619.763-1.33.96-2.18l.014-.09c.064-.376.23-1.377 1.267-1.377.709 0 1.11.4 1.11 1.109 0 .858-1.047 1.955-2.318 3.195l-.407.404c-4.734 4.567-10.247 7.049-15.113 9.239-2.01.904-3.93 1.772-5.634 2.714.053-.003.109-.003.163-.003 1.933 0 3.566.865 5.146 1.703 1.56.834 3.032 1.617 4.761 1.617 2.919 0 3.803 0 8.082-4.155l5.526-5.648c.644-1.004 1.337-1.967 2.076-2.814 3.888-4.396 7.814-6.62 11.674-6.62 2.196 0 3.507.987 3.507 2.642 0 3.385-6.597 7.663-14.15 9.192-1.039 1.492-3.87 5.604-3.87 8.2 0 .959.255 1.475 1.6 1.475 3.698 0 7.817-3.444 11.45-6.483.41-.346.812-.683 1.208-1.008l12.025-9.887.003.003 2.825-3.645h4.122l-5.728 7.151c4.948-4.945 9.317-7.765 12.214-7.765 2.7 0 3.264 1.57 3.264 2.89 0 2.405-2.168 5.167-3.46 6.602l-3.88 4.3c-3.49 3.753-5.41 6.652-5.005 7.573.095.218.376.33.84.33 3.102 0 6.993-3.794 9.564-6.303l11.534-11.153zM696.49 375.047c2.198 0 5.891-3.101 10.398-8.73l6.423-8.069c.09-.295.147-.662.147-.958 0-1.545-.551-2.147-1.963-2.147-4.18 0-16.354 12.007-16.354 18.677 0 .872.39 1.227 1.349 1.227zm81.419-18.192c-1.887 1.481-3.988 3.688-5.92 6.21l-.856 1.17c6.951-1.67 12.05-5.51 12.05-7.987 0-.771-.541-1.29-1.35-1.29-1.439 0-2.726.938-3.924 1.897z"></path>
    <path id="rzkgk" d="M728.818 211.14l4.74-3.446a14.633 14.633 0 0 0-5.91-4.284l-1.808 5.56a8.767 8.767 0 0 1 2.978 2.17"></path>
    <path id="rzkgl" d="M718.68 202.87l1.804 5.554a8.796 8.796 0 0 1 1.846-.2c.632 0 1.247.072 1.841.2l1.806-5.553a14.47 14.47 0 0 0-3.647-.481c-1.264 0-2.483.177-3.65.48"></path>
    <path id="rzkgm" d="M734.59 209.13l-4.73 3.436c.506.864.865 1.82 1.048 2.838h5.891a14.407 14.407 0 0 0-2.209-6.274"></path>
    <path id="rzkgn" d="M731.05 221.445h5.832v-4.275h-5.832z"></path>
    <path id="rzkgo" d="M711.09 207.697l4.743 3.44a8.755 8.755 0 0 1 2.973-2.167l-1.807-5.56a14.59 14.59 0 0 0-5.909 4.287"></path>
    <path id="rzkgp" d="M707.77 227.713h5.832v-4.503h-5.832z"></path>
    <path id="rzkgq" d="M740.548 179.78v-.004z"></path>
    <path id="rzkgr" d="M740.548 193.85v-.004z"></path>
    <path id="rzkgs" d="M740.552 192.497V181.12l-4.912 5.687z"></path>
    <path id="rzkgt" d="M739.088 169.876l-.485-.978-1.428-2.869-1.396 2.86-.484.987H727.642l-.481-.997-2.083-4.301c-.338-.714-.801-1.358-2.753-1.358-1.962 0-2.427.64-2.771 1.375l-2.073 4.284-.481.997h-7.654l-.484-.988-1.399-2.865-1.43 2.875-.486.978h-1.457v8.134h36.458v-8.134h-.365z"></path>
    <path id="rzkgu" d="M708.36 155.6v8.234l2.095 4.287h5.443l2.075-4.287c.654-1.396 1.768-2.373 4.358-2.373 2.581 0 3.696.977 4.35 2.373l2.076 4.287h5.443l2.093-4.284V155.6z"></path>
    <path id="rzkgv" d="M660.7 169.876h1.768v-6.556c.248-.064.497-.1.702-.1 2.516 0 3 .81 3.232 1.294l1.586 4.22.43 1.142h2.048v23.968h-9.763zm.003 25.734h3.996v5.66h1.766v-5.66h4v32.102H660.7zm3.996 28.512h1.755v-5.664h-1.755z"></path>
    <path id="rzkgw" d="M698.325 201.27h-1.766v-5.66h-3.999v32.102h9.764V195.61h-3.999zm-1.762 22.85h1.758v-5.664h-1.758z"></path>
    <path id="rzkgx" d="M682.393 201.27h-1.766v-5.66h-8.397v32.102h18.562V195.61h-8.4zm-1.761 22.85h1.746v-5.664h-1.746z"></path>
    <path id="rzkgy" d="M704.09 192.496l4.91-5.684-4.91-5.682z"></path>
    <path id="rzkgz" d="M783.94 193.844h-9.76v-23.968h2.044l.43-1.142 1.585-4.22c.232-.484.715-1.294 3.232-1.294.205 0 .454.036.702.1v6.556h1.771zm.004 33.868h-9.764V195.61h3.999v5.66h1.766v-5.66h3.996zm-5.765-3.592h1.766v-5.664h-1.766z"></path>
    <path id="rzkgA" d="M745.547 150.303v3.526h1.847v-3.526H752.084V137.33h-9.764v12.973h1.463z"></path>
    <path id="rzkgB" d="M750.033 169.876l-.43-1.142-1.586-4.22c-.234-.484-.716-1.294-3.231-1.294-.206 0-.455.036-.704.1V169.876h-1.762v23.968h9.764v-23.968h-.83z"></path>
    <path id="rzkgC" d="M767.756 153.837h1.846v-3.525H772.412V137.34H753.85v12.972H756.652v3.525h1.846v-3.525h9.258v1.765z"></path>
    <path id="rzkgD" d="M783.943 126.55h-6.374v5.73h-5.378v-5.73h-6.372v5.73h-5.378v-5.73h-6.372v5.73h-5.377v-5.73h-6.372v9.014h41.619z"></path>
    <path id="rzkgE" d="M783.94 137.33h-9.76v12.973h4.68v3.524h1.85v-3.524h3.235z"></path>
    <path id="rzkgF" d="M768.449 169.876l-.483-.994-2.083-4.304c-.336-.717-.8-1.358-2.753-1.358-1.961 0-2.425.64-2.77 1.375l-2.075 4.287-.481.994H753.85v23.968h18.562v-23.968h-2.857z"></path>
    <path id="rzkgG" d="M764.013 201.27h-1.767v-5.66h-8.396v32.102h18.562V195.61h-8.4zm-1.767 22.85h1.757v-5.664h-1.757z"></path>
    <path id="rzkgH" d="M748.085 201.27h-1.766v-5.66h-3.999v32.102h9.764V195.61h-3.999zm-1.766 22.85h1.766v-5.664h-1.766z"></path>
    <path id="rzkgI" d="M704.09 227.712h1.904v-10.774c0-8.992 7.326-16.311 16.328-16.311 9 0 16.323 7.319 16.323 16.311v10.774h1.903V195.61H704.09z"></path>
    <path id="rzkgJ" d="M700.559 169.876V163.32a2.94 2.94 0 0 0-.702-.1c-2.515 0-3 .81-3.233 1.294l-1.584 4.22-.43 1.142h-2.05v23.968h9.764v-23.968z"></path>
    <path id="rzkgK" d="M686.14 153.837h1.848v-3.525H690.792V137.34H672.23v12.972h2.806v3.525h1.848v-3.525h9.257v1.765z"></path>
    <path id="rzkgL" d="M660.7 150.303H663.933v3.526h1.847v-3.526h4.686V137.33h-9.763z"></path>
    <path id="rzkgM" d="M660.703 135.564h41.62v-9.014h-6.374v5.73h-5.378v-5.73h-6.37v5.73h-5.378v-5.73h-6.373v5.73h-5.378v-5.73H660.7z"></path>
    <path id="rzkgN" d="M686.843 169.876l-.482-.994-2.084-4.304c-.335-.717-.799-1.358-2.752-1.358-1.962 0-2.425.64-2.77 1.375l-2.074 4.287-.483.994h-3.958v23.968h18.56v-23.968h-2.85z"></path>
    <path id="rzkgO" d="M697.247 153.837h1.847v-3.525h3.23V137.34h-9.764v12.972h4.687v1.765z"></path>
    <path id="rzkgP" d="M722.324 185.467l4.914-5.687h-9.828z"></path>
    <path id="rzkgQ" d="M739.383 193.847l-4.912-5.687-4.911 5.687z"></path>
    <path id="rzkgR" d="M711.33 186.814l4.91 5.687 4.915-5.687-4.914-5.684z"></path>
    <path id="rzkgS" d="M705.26 193.847h9.825l-4.913-5.687z"></path>
    <path id="rzkgT" d="M723.49 186.814l4.912 5.687 4.913-5.687-4.913-5.684z"></path>
    <path id="rzkgU" d="M717.41 193.847h9.826l-4.912-5.687z"></path>
    <path id="rzkgV" d="M710.172 185.467l4.913-5.687h-9.825z"></path>
    <path id="rzkgW" d="M729.57 179.78l4.91 5.687 4.913-5.687z"></path>
    <path id="rzkgX" d="M707.85 215.404h5.895a8.563 8.563 0 0 1 1.047-2.84l-4.73-3.434a14.443 14.443 0 0 0-2.212 6.274"></path>
    <path id="rzkgY" d="M731.05 227.713h5.832v-4.503h-5.832z"></path>
    <path id="rzkgZ" d="M707.77 221.445h5.832v-4.275h-5.832z"></path>
    <path id="rzkgaa" d="M722.322 209.99c-3.84 0-6.962 3.117-6.962 6.949v10.773h13.922V216.94c0-3.832-3.123-6.949-6.96-6.949"></path>
    <path id="rzkgab" d="M704.452 168.114l2.131-4.287V152.07h-5.726v3.523h-5.378v-3.523h-5.726v3.523h-5.377v-3.523h-5.728v3.523h-5.376v-3.523h-5.728v3.523h-5.378v-3.523H656.44v11.757l2.13 4.287h2.133v-5.96c.637-.405 1.661-.7 2.466-.7 2.945 0 4.204.98 4.858 2.373l1.612 4.287h5.443l2.075-4.287c.654-1.394 1.767-2.372 4.359-2.372 2.582 0 3.695.978 4.35 2.372l2.075 4.287h5.445l1.61-4.287c.653-1.394 1.914-2.372 4.858-2.372.805 0 1.831.294 2.468.698v5.961h1.768z"></path>
    <path id="rzkgac" d="M783.948 152.07h-1.47v3.525h-5.377v-3.525h-5.728v3.525h-5.377v-3.525h-5.728v3.525h-5.376v-3.525h-5.728v3.525h-5.378v-3.525h-5.726V163.828l2.132 4.286h2.13v-5.96c.155-.1.336-.192.529-.273a5.036 5.036 0 0 1 .467-.165c.06-.022.114-.045.176-.064.078-.022.154-.03.233-.051a4.79 4.79 0 0 1 1.063-.146c2.944 0 4.205.978 4.858 2.373l1.611 4.286h5.443l2.075-4.286c.654-1.395 1.769-2.373 4.357-2.373 2.584 0 3.695.978 4.35 2.373l2.077 4.286h5.445l1.61-4.286c.654-1.395 1.914-2.373 4.859-2.373.804 0 1.828.295 2.467.698v5.961h2.13l2.131-4.286V152.07z"></path>
    <clipPath id="rzkge">
      <use xlink:href="#rzkga"></use>
    </clipPath>
  </defs>
  <g>
    <g class="turia-logo-group" transform="translate(-545 -126)">
      <g class="turia-main-heading">
        <g>
          <use fill="#19181b" xlink:href="#rzkgb"></use>
        </g>
        <g>
          <use fill="#19181b" xlink:href="#rzkgc"></use>
        </g>
        <g>
          <use fill="#19181b" xlink:href="#rzkgd"></use>
        </g>
        <g clip-path="url(#rzkge)">
          <use fill="#19181b" xlink:href="#rzkgf"></use>
        </g>
        <g clip-path="url(#rzkge)">
          <use fill="#19181b" xlink:href="#rzkgg"></use>
        </g>
      </g>
      <g class="turia-secondary-heading">
        <g clip-path="url(#rzkge)">
          <g>
            <use fill="#19181b" xlink:href="#rzkgh"></use>
          </g>
          <g>
            <use fill="#19181b" xlink:href="#rzkgi"></use>
          </g>
          <g>
            <use fill="#19181b" xlink:href="#rzkgj"></use>
          </g>
        </g>
      </g>
      <g class="turia-logo">
        <g clip-path="url(#rzkge)">
          <use fill="#19181b" xlink:href="#rzkgk"></use>
        </g>
        <g clip-path="url(#rzkge)">
          <use fill="#19181b" xlink:href="#rzkgl"></use>
        </g>
        <g clip-path="url(#rzkge)">
          <use fill="#19181b" xlink:href="#rzkgm"></use>
        </g>
        <g clip-path="url(#rzkge)">
          <use fill="#19181b" xlink:href="#rzkgn"></use>
        </g>
        <g clip-path="url(#rzkge)">
          <use fill="#19181b" xlink:href="#rzkgo"></use>
        </g>
        <g clip-path="url(#rzkge)">
          <use fill="#19181b" xlink:href="#rzkgp"></use>
        </g>
        <g clip-path="url(#rzkge)">
          <use fill="#19181b" xlink:href="#rzkgq"></use>
        </g>
        <g clip-path="url(#rzkge)">
          <use fill="#19181b" xlink:href="#rzkgr"></use>
        </g>
        <g clip-path="url(#rzkge)">
          <use fill="#19181b" xlink:href="#rzkgs"></use>
        </g>
        <g clip-path="url(#rzkge)">
          <use fill="#19181b" xlink:href="#rzkgt"></use>
        </g>
        <g clip-path="url(#rzkge)">
          <use fill="#19181b" xlink:href="#rzkgu"></use>
        </g>
        <g clip-path="url(#rzkge)">
          <use fill="#19181b" xlink:href="#rzkgv"></use>
        </g>
        <g clip-path="url(#rzkge)">
          <use fill="#19181b" xlink:href="#rzkgw"></use>
        </g>
        <g clip-path="url(#rzkge)">
          <use fill="#19181b" xlink:href="#rzkgx"></use>
        </g>
        <g clip-path="url(#rzkge)">
          <use fill="#19181b" xlink:href="#rzkgy"></use>
        </g>
        <g clip-path="url(#rzkge)">
          <use fill="#19181b" xlink:href="#rzkgz"></use>
        </g>
        <g clip-path="url(#rzkge)">
          <use fill="#19181b" xlink:href="#rzkgA"></use>
        </g>
        <g clip-path="url(#rzkge)">
          <use fill="#19181b" xlink:href="#rzkgB"></use>
        </g>
        <g clip-path="url(#rzkge)">
          <use fill="#19181b" xlink:href="#rzkgC"></use>
        </g>
        <g clip-path="url(#rzkge)">
          <use fill="#19181b" xlink:href="#rzkgD"></use>
        </g>
        <g clip-path="url(#rzkge)">
          <use fill="#19181b" xlink:href="#rzkgE"></use>
        </g>
        <g clip-path="url(#rzkge)">
          <use fill="#19181b" xlink:href="#rzkgF"></use>
        </g>
        <g clip-path="url(#rzkge)">
          <use fill="#19181b" xlink:href="#rzkgG"></use>
        </g>
        <g clip-path="url(#rzkge)">
          <use fill="#19181b" xlink:href="#rzkgH"></use>
        </g>
        <g clip-path="url(#rzkge)">
          <use fill="#19181b" xlink:href="#rzkgI"></use>
        </g>
        <g clip-path="url(#rzkge)">
          <use fill="#19181b" xlink:href="#rzkgJ"></use>
        </g>
        <g clip-path="url(#rzkge)">
          <use fill="#19181b" xlink:href="#rzkgK"></use>
        </g>
        <g clip-path="url(#rzkge)">
          <use fill="#19181b" xlink:href="#rzkgL"></use>
        </g>
        <g clip-path="url(#rzkge)">
          <use fill="#19181b" xlink:href="#rzkgM"></use>
        </g>
        <g clip-path="url(#rzkge)">
          <use fill="#19181b" xlink:href="#rzkgN"></use>
        </g>
        <g clip-path="url(#rzkge)">
          <use fill="#19181b" xlink:href="#rzkgO"></use>
        </g>
        <g clip-path="url(#rzkge)">
          <use fill="#19181b" xlink:href="#rzkgP"></use>
        </g>
        <g clip-path="url(#rzkge)">
          <use fill="#19181b" xlink:href="#rzkgQ"></use>
        </g>
        <g clip-path="url(#rzkge)">
          <use fill="#19181b" xlink:href="#rzkgR"></use>
        </g>
        <g clip-path="url(#rzkge)">
          <use fill="#19181b" xlink:href="#rzkgS"></use>
        </g>
        <g clip-path="url(#rzkge)">
          <use fill="#19181b" xlink:href="#rzkgT"></use>
        </g>
        <g clip-path="url(#rzkge)">
          <use fill="#19181b" xlink:href="#rzkgU"></use>
        </g>
        <g clip-path="url(#rzkge)">
          <use fill="#19181b" xlink:href="#rzkgV"></use>
        </g>
        <g clip-path="url(#rzkge)">
          <use fill="#19181b" xlink:href="#rzkgW"></use>
        </g>
        <g clip-path="url(#rzkge)">
          <use fill="#19181b" xlink:href="#rzkgX"></use>
        </g>
        <g clip-path="url(#rzkge)">
          <use fill="#19181b" xlink:href="#rzkgY"></use>
        </g>
        <g clip-path="url(#rzkge)">
          <use fill="#19181b" xlink:href="#rzkgZ"></use>
        </g>
        <g clip-path="url(#rzkge)">
          <use fill="#19181b" xlink:href="#rzkgaa"></use>
        </g>
        <g clip-path="url(#rzkge)">
          <use fill="#19181b" xlink:href="#rzkgab"></use>
        </g>
        <g clip-path="url(#rzkge)">
          <use fill="#19181b" xlink:href="#rzkgac"></use>
        </g>
      </g>
    </g>
  </g>
</svg>